<svg xmlns="http://www.w3.org/2000/svg" viewBox="0 0 100 100" enable-background="new 0 0 100 100"><circle fill="#24396d" cx="50" cy="50" r="50"/><path fill="#1b3460" d="m19.499 19.499l-17.873 17.873c-4.316 16.6.016 34.979 13.02 47.984 7.572 7.57 16.97 12.192 26.775 13.893l18.746-18.748-2.029-18.305 22.363-22.363-61-20.334"/><path fill="#ce2e5f" d="m39.833 19.499h20.333v20.334h-20.333z"/><path fill="#aa2253" d="m39.833 39.833l20.337-20.334v20.334z"/><path fill="#ff3e71" d="m43.13 22.791h13.75v13.75h-13.75z"/><path fill="#ce2e5f" d="m60.17 19.499h20.334v20.334h-20.334z"/><path fill="#aa2253" d="m60.17 39.833l20.33-20.334v20.334z"/><path fill="#ff3e71" d="m63.46 22.791h13.75v13.75h-13.75z"/><path fill="#ce2e5f" d="m19.499 19.499h20.334v20.334h-20.334z"/><path fill="#aa2253" d="m19.499 39.833l20.334-20.334v20.334z"/><path fill="#ff3e71" d="m22.791 22.791h13.75v13.75h-13.75z"/><path fill="#ce2e5f" d="m39.833 39.833h20.333v20.334h-20.333z"/><path fill="#aa2253" d="m39.833 60.17l20.337-20.337v20.337z"/><path fill="#ff3e71" d="m43.13 43.13h13.75v13.75h-13.75z"/><path fill="#ce2e5f" d="m39.833 60.17h20.333v20.334h-20.333z"/><path fill="#aa2253" d="m39.833 80.5l20.337-20.33v20.33z"/><path fill="#ff3e71" d="m43.13 63.46h13.75v13.75h-13.75z"/></svg>